<?xml version="1.0" encoding="UTF-8" standalone="no"?>
<!DOCTYPE svg PUBLIC "-//W3C//DTD SVG 1.1//EN"
"http://www.w3.org/Graphics/SVG/1.1/DTD/svg11.dtd">


<!-- Page 1 -->
<svg x="0" y="0" width="173" height="110" viewBox="0 0 173 110" version="1.1" xmlns="http://www.w3.org/2000/svg" xmlns:xlink="http://www.w3.org/1999/xlink"
style="display: block;margin-left: auto;margin-right: auto;">
<defs>
<clipPath id="c_1"><path d="M0,0H173V110H0Z"/></clipPath>
<clipPath id="c0"><path d="M0,110V0H173.2V110Z"/></clipPath>

<style type="text/css"><![CDATA[

.g0{
fill: #FFFFFF;
}
.g1{
}
.g2{
fill: none;
stroke: #FFFFFF;
stroke-width: 1.515;
stroke-linecap: butt;
stroke-linejoin: miter;
stroke-miterlimit: 7;
}
.g3{
fill: none;
stroke: #000000;
stroke-width: 3.074;
stroke-linecap: butt;
stroke-linejoin: miter;
}
.g4{
fill: none;
stroke: #404040;
stroke-width: 0.779;
stroke-linecap: butt;
stroke-linejoin: miter;
}
.g5{
fill: none;
stroke: #000000;
stroke-width: 0.779;
stroke-linecap: butt;
stroke-linejoin: miter;
stroke-miterlimit: 7;
}
.g6{
fill: none;
stroke: #000000;
stroke-width: 1.125;
stroke-linecap: butt;
stroke-linejoin: miter;
stroke-miterlimit: 7;
}

]]></style>

</defs>
<path d="M0,0
L0,110
L173,110
L173,0 Z " 
fill="#FFFFFF" stroke="none"/>
<g clip-path="url(#c_1)">
<path clip-path="url(#c0)" fill-rule="evenodd" d="M0,0H173.2V110H0V0Z" class="g0"/>
<path fill-rule="evenodd" d="M21.2,26.3v-.4l.1,-.4l.1,-.5l.2,-.4l.2,-.4l.2,-.4l.4,-.4l.3,-.4l.5,-.4l.4,-.4l.5,-.3l.5,-.4l.6,-.3l.7,-.4l.6,-.3l.7,-.3l.7,-.3l.8,-.2l.7,-.3l.9,-.2l.8,-.2l.9,-.2l.9,-.2l.9,-.2l.9,-.1l.9,-.2h1l.9,-.1l1,-.1h3.9l1,.1l1,.1h.9l1,.2l.9,.1l.9,.2l.9,.2l.8,.2l.9,.2l.8,.2l.8,.3l.8,.2l.7,.3l.7,.3l.6,.3l.7,.4l.5,.3l.6,.4l.5,.3l.4,.4l.4,.4l.4,.4l.3,.4l.3,.4l.2,.4l.2,.4l.1,.5l.1,.4V60.6l-.1,.4l-.1,.5l-.2,.3l-.2,.5l-.3,.4l-.3,.4l-.4,.4l-.4,.4l-.4,.4l-.5,.3l-.6,.4l-.5,.3l-.7,.4l-.6,.3l-.7,.3l-.7,.3l-.8,.2l-.8,.3l-.8,.2l-.9,.2l-.8,.2l-.9,.2l-.9,.2l-.9,.1l-1,.1l-.9,.1l-1,.1l-1,.1H38.5l-1,-.1l-.9,-.1l-1,-.1l-.9,-.1l-.9,-.1l-.9,-.2L32,67.7l-.9,-.2l-.8,-.2l-.9,-.2l-.7,-.3l-.8,-.2l-.7,-.3L26.5,66l-.6,-.3l-.7,-.4L24.6,65l-.5,-.4l-.5,-.3l-.4,-.4l-.5,-.4l-.3,-.4L22,62.7l-.2,-.4l-.2,-.5l-.2,-.3L21.3,61l-.1,-.4V26.3Z" class="g1"/>
<path d="M21.2,26.3v-.4l.1,-.4l.1,-.5l.2,-.4l.2,-.4l.2,-.4l.4,-.4l.3,-.4l.5,-.4l.4,-.4l.5,-.3l.5,-.4l.6,-.3l.7,-.4l.6,-.3l.7,-.3l.7,-.3l.8,-.2l.7,-.3l.9,-.2l.8,-.2l.9,-.2l.9,-.2l.9,-.2l.9,-.1l.9,-.2h1l.9,-.1l1,-.1h3.9l1,.1l1,.1h.9l1,.2l.9,.1l.9,.2l.9,.2l.8,.2l.9,.2l.8,.2l.8,.3l.8,.2l.7,.3l.7,.3l.6,.3l.7,.4l.5,.3l.6,.4l.5,.3l.4,.4l.4,.4l.4,.4l.3,.4l.3,.4l.2,.4l.2,.4l.1,.5l.1,.4V60.6l-.1,.4l-.1,.5l-.2,.3l-.2,.5l-.3,.4l-.3,.4l-.4,.4l-.4,.4l-.4,.4l-.5,.3l-.6,.4l-.5,.3l-.7,.4l-.6,.3l-.7,.3l-.7,.3l-.8,.2l-.8,.3l-.8,.2l-.9,.2l-.8,.2l-.9,.2l-.9,.2l-.9,.1l-1,.1l-.9,.1l-1,.1l-1,.1H38.5l-1,-.1l-.9,-.1l-1,-.1l-.9,-.1l-.9,-.1l-.9,-.2L32,67.7l-.9,-.2l-.8,-.2l-.9,-.2l-.7,-.3l-.8,-.2l-.7,-.3L26.5,66l-.6,-.3l-.7,-.4L24.6,65l-.5,-.4l-.5,-.3l-.4,-.4l-.5,-.4l-.3,-.4L22,62.7l-.2,-.4l-.2,-.5l-.2,-.3L21.3,61l-.1,-.4V26.3Zm38.6,0v.5l-.1,.4l-.1,.4l-.2,.4l-.2,.5l-.3,.3l-.3,.5l-.4,.4l-.4,.4l-.4,.3l-.5,.4l-.6,.3l-.5,.4l-.7,.3l-.6,.3l-.7,.3l-.7,.3l-.8,.3l-.8,.3l-.8,.2l-.9,.2l-.8,.2l-.9,.2l-.9,.2l-.9,.1l-1,.1l-.9,.1l-1,.1h-1l-.9,.1h-2l-1,-.1h-1l-.9,-.1l-1,-.1l-.9,-.1l-.9,-.1l-.9,-.2L32,33.9l-.9,-.2l-.8,-.2l-.9,-.2L28.7,33l-.8,-.3l-.7,-.3l-.7,-.3l-.6,-.3l-.7,-.3l-.6,-.4l-.5,-.3l-.5,-.4l-.4,-.3l-.5,-.4l-.3,-.4L22,28.8l-.2,-.3L21.6,28l-.2,-.4l-.1,-.4l-.1,-.4v-.5" class="g2"/>
<path d="M65.5,41.7l11.8,.1" class="g3"/>
<path fill-rule="evenodd" d="M82.8,41.8l-6.1,4.6V37.2l6.1,4.6Z" class="g1"/>
<path fill-rule="evenodd" d="M91.6,16.5v-.4l.1,-.2v-.2l.1,-.2v-.1l.1,-.2V15l.1,-.1l.1,-.2l.1,-.1l.1,-.2l.1,-.1l.1,-.2l.1,-.1l.2,-.1l.1,-.1l.2,-.2h.1l.2,-.1l.1,-.1l.2,-.1l.1,-.1H94l.2,-.1h.2l.1,-.1h15l.2,.1h.1l.2,.1h.2l.1,.1l.2,.1l.1,.1l.2,.1h.2l.1,.2l.2,.1l.1,.1l.1,.1l.1,.2l.1,.1l.1,.2l.1,.1l.1,.2l.1,.1l.1,.2v.2l.1,.1v.4l.1,.2V67.6l-.1,.2v.3l-.1,.2l-.1,.2l-.1,.1l-.1,.2v.1l-.1,.2l-.2,.1l-.1,.2l-.1,.1l-.1,.1l-.2,.1l-.1,.2h-.1l-.2,.1l-.2,.1l-.1,.1l-.2,.1H110l-.1,.1h-.2l-.2,.1H94.4l-.2,-.1H94l-.2,-.1l-.1,-.1h-.2l-.1,-.1L93.2,70l-.1,-.1l-.2,-.1l-.1,-.2h-.2l-.1,-.2l-.1,-.2l-.1,-.1L92.2,69l-.1,-.2L92,68.6l-.1,-.1v-.2l-.1,-.1V68l-.1,-.2v-.2l-.1,-.2V16.5Z" class="g0"/>
<path d="M91.6,16.5v-.4l.1,-.2v-.2l.1,-.2v-.1l.1,-.2V15l.1,-.1l.1,-.2l.1,-.1l.1,-.2l.1,-.1l.1,-.2l.1,-.1l.2,-.1l.1,-.1l.2,-.2h.1l.2,-.1l.1,-.1l.2,-.1l.1,-.1H94l.2,-.1M95.7,13h4.6m1.5,0h4.5m1.5,0h1.7l.2,.1h.1l.2,.1h.2l.1,.1l.2,.1l.1,.1l.2,.1h.2l.1,.2l.2,.1l.1,.1l.1,.1l.1,.2l.1,.1l.1,.2m.5,1.4l.1,.1v4.4m0,1.5v4.6m0,1.5v4.6m0,1.5v4.5m0,1.5v4.6m0,1.5v4.5m0,1.6v4.5m0,1.5V63m0,1.5v3.1l-.1,.2v.3l-.1,.2l-.1,.2l-.1,.1l-.1,.2v.1M110.8,70h-.1l-.2,.1l-.1,.1l-.2,.1H110l-.1,.1h-.2l-.2,.1h-3.1m-1.6,0h-4.5m-1.5,0H94.4l-.1,-.1m-1.4,-.6l-.1,-.2h-.2l-.1,-.2l-.1,-.2l-.1,-.1L92.2,69l-.1,-.2L92,68.6l-.1,-.1v-.2l-.1,-.1V68l-.1,-.2v-.2l-.1,-.2V65.7m0,-1.6V59.6m0,-1.5V53.5m0,-1.5V47.5m0,-1.6V41.4m0,-1.5V35.3m0,-1.5V29.3m0,-1.5V23.2m0,-1.5V17.1" class="g4"/>
<path d="M87.2,23.6l76.6,.1m-76.6,18l76.6,.1M87.2,61.1l76.6,.1M124.3,23.6l.1,44.5m-7.6,-7V59.9l.1,-.4l.1,-.3l.1,-.4l.1,-.3l.2,-.4l.1,-.4l.2,-.3l.2,-.3l.2,-.4l.2,-.3l.3,-.3l.2,-.2l.3,-.3l.3,-.3l.3,-.2l.3,-.2l.3,-.2l.3,-.3l.4,-.1l.3,-.2l.3,-.1l.4,-.2l.4,-.1h.4l.4,-.1l.3,-.1h1.6l.4,.1l.4,.1h.3l.4,.2l.4,.1l.4,.1l.3,.2l.4,.2l.3,.2l.3,.2l.3,.3l.3,.2l.3,.3l.3,.3l.2,.3l.3,.3l.2,.3l.2,.4l.2,.3l.2,.3l.1,.4l.1,.4l.2,.4l.1,.4v.4l.1,.3v1.6l-.1,.4v.4l-.1,.4l-.2,.4l-.1,.3l-.1,.4l-.2,.3l-.2,.4l-.2,.3l-.2,.4l-.3,.3l-.2,.3l-.3,.2l-.3,.3l-.2,.3l-.4,.2l-.3,.2l-.3,.3l-.4,.2l-.3,.1l-.4,.2l-.4,.1l-.4,.1l-.3,.1l-.4,.1l-.4,.1h-1.6l-.4,-.1l-.4,-.1l-.4,-.1l-.3,-.1l-.4,-.1l-.4,-.2l-.3,-.1l-.4,-.2l-.3,-.2l-.4,-.2l-.3,-.3l-.3,-.3l-.2,-.2l-.3,-.3l-.3,-.3l-.2,-.3l-.2,-.3l-.2,-.4l-.3,-.3l-.1,-.4l-.2,-.4l-.1,-.3L117,63l-.1,-.4l-.1,-.4v-.4l-.1,-.3v-.4h.1Z" class="g5"/>
<path fill-rule="evenodd" d="M119.6,24.2v-.3l.1,-.2v-.5l.1,-.3l.1,-.3l.1,-.2v-.2l.2,-.3l.1,-.2l.1,-.2l.2,-.2l.1,-.3l.2,-.2l.2,-.1l.2,-.2l.2,-.2l.2,-.2l.2,-.1l.2,-.1l.2,-.2l.3,-.1l.2,-.1l.3,-.1h.2l.3,-.1l.3,-.1h1.5l.3,.1l.2,.1h.3l.3,.1l.2,.1l.2,.1l.2,.2l.3,.1l.2,.1l.2,.2l.2,.2l.2,.2l.2,.1l.1,.2l.2,.3l.1,.2l.2,.2l.1,.2l.1,.3l.1,.2l.1,.2l.1,.3v.3l.1,.2v.3l.1,.2v.3h-.1V25l-.1,.2l-.1,.3v.3l-.1,.2l-.1,.2l-.1,.3l-.1,.2l-.2,.2l-.1,.3l-.2,.2l-.1,.1l-.3,.3l-.1,.1l-.2,.2l-.2,.1l-.2,.2l-.3,.1l-.2,.2l-.2,.1l-.3,.1l-.2,.1l-.3,.1h-.5l-.2,.1h-.8l-.3,-.1h-.5l-.3,-.1l-.2,-.1l-.2,-.1h-.3l-.2,-.2l-.3,-.1l-.2,-.1l-.2,-.2l-.2,-.1l-.2,-.2l-.2,-.2l-.2,-.2l-.2,-.2l-.1,-.1l-.2,-.3l-.1,-.2l-.1,-.2l-.2,-.3V26l-.1,-.2l-.1,-.3l-.1,-.3v-.5l-.1,-.2v-.3Z" class="g1"/>
<path d="M141,41.7v-.3l.1,-.4v-.8l.1,-.4l.2,-.3l.1,-.4l.1,-.3l.1,-.4l.3,-.3l.1,-.3l.3,-.4l.2,-.3l.2,-.3l.2,-.2l.3,-.3l.3,-.3l.3,-.2l.3,-.2l.4,-.3l.3,-.2l.3,-.2l.4,-.1l.3,-.2l.4,-.1l.3,-.1l.4,-.1h.4l.4,-.1h1.5l.4,.1h.4l.4,.1l.4,.2l.3,.1l.4,.1l.4,.2l.3,.2l.3,.2l.4,.2l.3,.3l.3,.2l.3,.3l.2,.3l.3,.2l.2,.4l.3,.3l.1,.3l.3,.4l.1,.3l.2,.4l.1,.4l.1,.4l.1,.3l.1,.4v.4l.1,.4v.8l-.1,.4v.4l-.1,.4l-.1,.4l-.1,.3l-.1,.4l-.2,.4l-.1,.3l-.2,.4l-.2,.3l-.3,.4l-.2,.3l-.3,.3l-.2,.2l-.3,.3l-.3,.3l-.3,.2l-.3,.2l-.4,.2l-.3,.3l-.4,.1l-.4,.2l-.3,.1l-.4,.1l-.4,.1l-.4,.1h-.4l-.4,.1h-.7l-.4,-.1h-.4l-.4,-.1l-.4,-.1l-.4,-.1l-.3,-.1l-.4,-.2l-.4,-.1l-.3,-.2l-.4,-.2l-.3,-.2l-.3,-.3l-.3,-.3l-.3,-.2l-.3,-.3l-.2,-.3l-.3,-.3l-.2,-.3l-.2,-.4l-.2,-.3l-.2,-.4l-.1,-.4l-.1,-.3l-.2,-.4l-.1,-.4v-.4l-.1,-.4v-.8Z" class="g5"/>
<path fill-rule="evenodd" d="M143.6,60.7v-.8l.1,-.3l.1,-.2l.1,-.3l.1,-.2v-.3l.2,-.2l.1,-.2l.1,-.3l.2,-.2l.1,-.2l.2,-.2l.2,-.2l.2,-.2l.2,-.1l.2,-.2l.2,-.1l.2,-.2l.2,-.1l.3,-.1l.2,-.1l.3,-.1l.2,-.1h.3l.3,-.1h.2l.3,-.1h.5l.2,.1h.3l.3,.1h.2l.3,.1l.2,.1l.3,.1l.2,.1l.2,.1l.3,.2l.2,.1l.2,.2l.2,.1l.2,.2l.2,.2l.1,.2l.2,.2l.1,.2l.2,.3l.1,.2l.1,.2l.1,.3l.1,.2l.1,.3v.2l.1,.3v.3l.1,.2v.3h-.1v.8l-.1,.2l-.1,.3v.2l-.1,.2l-.1,.3l-.2,.2v.3l-.2,.2l-.1,.2l-.2,.2l-.1,.2l-.3,.2l-.1,.2l-.3,.2l-.1,.1l-.2,.2l-.3,.1l-.2,.1l-.2,.2l-.3,.1h-.2l-.3,.1l-.2,.1h-.3l-.3,.1h-.7l-.3,-.1h-.2l-.3,-.1h-.3l-.2,-.1l-.2,-.1l-.3,-.1l-.2,-.1l-.3,-.1l-.2,-.2l-.2,-.1l-.2,-.2l-.2,-.1l-.2,-.2l-.2,-.2l-.2,-.2l-.1,-.2l-.2,-.2l-.1,-.2l-.1,-.3l-.2,-.2v-.3l-.1,-.2l-.1,-.2l-.1,-.3v-.2l-.1,-.3v-.5Z" class="g1"/>
<path d="M148.6,34.5V60.2" class="g5"/>
<path fill-rule="evenodd" d="M102.5,29.5H96.4V18.2h12.1V29.5h-6Z" class="g0"/>
<path d="M102.5,29.5H96.4V18.2h12.1V29.5h-6Z" class="g6"/>
<path fill-rule="evenodd" d="M102.2,66.4H96.1V55.1h12.2V66.4h-6.1Z" class="g0"/>
<path d="M102.2,66.4H96.1V55.1h12.2V66.4h-6.1Z" class="g6"/>

</g>
</svg>
